ffmpeg version N-55863-g9f38fac053-static https://johnvansickle.com/ffmpeg/  Copyright (c) 2000-2021 the FFmpeg developers
  built with gcc 8 (Debian 8.3.0-6)
  configuration: --enable-gpl --enable-version3 --enable-static --disable-debug --disable-ffplay --disable-indev=sndio --disable-outdev=sndio --cc=gcc --enable-fontconfig --enable-frei0r --enable-gnutls --enable-gmp --enable-libgme --enable-gray --enable-libaom --enable-libfribidi --enable-libass --enable-libvmaf --enable-libfreetype --enable-libmp3lame --enable-libopencore-amrnb --enable-libopencore-amrwb --enable-libopenjpeg --enable-librubberband --enable-libsoxr --enable-libspeex --enable-libsrt --enable-libvorbis --enable-libopus --enable-libtheora --enable-libvidstab --enable-libvo-amrwbenc --enable-libvpx --enable-libwebp --enable-libx264 --enable-libx265 --enable-libxml2 --enable-libdav1d --enable-libxvid --enable-libzvbi --enable-libzimg
  libavutil      56. 64.100 / 56. 64.100
  libavcodec     58.119.100 / 58.119.100
  libavformat    58. 65.101 / 58. 65.101
  libavdevice    58. 11.103 / 58. 11.103
  libavfilter     7.100.100 /  7.100.100
  libswscale      5.  8.100 /  5.  8.100
  libswresample   3.  8.100 /  3.  8.100
  libpostproc    55.  8.100 / 55.  8.100
Input #0, mov,mp4,m4a,3gp,3g2,mj2, from '/home/yiaapc5/public_html/f_data/data_userfiles/user_uploads/1134370236/v/1612723610.mp4':
  Metadata:
    major_brand     : mp42
    minor_version   : 0
    compatible_brands: isommp42
    creation_time   : 2020-12-29T04:26:42.000000Z
  Duration: 00:30:29.80, start: 0.000000, bitrate: 1003 kb/s
    Stream #0:0(und): Video: h264 (Main) (avc1 / 0x31637661), yuv420p(tv, bt709), 1280x720 [SAR 1:1 DAR 16:9], 871 kb/s, 29.97 fps, 29.97 tbr, 30k tbn, 59.94 tbc (default)
    Metadata:
      creation_time   : 2020-12-29T04:26:42.000000Z
      handler_name    : ISO Media file produced by Google Inc. Created on: 12/28/2020.
      vendor_id       : [0][0][0][0]
    Stream #0:1(eng): Audio: aac (LC) (mp4a / 0x6134706D), 44100 Hz, stereo, fltp, 128 kb/s (default)
    Metadata:
      creation_time   : 2020-12-29T04:26:42.000000Z
      handler_name    : ISO Media file produced by Google Inc. Created on: 12/28/2020.
      vendor_id       : [0][0][0][0]
Codec AVOption rc_eq (Set rate control equation. When computing the expression, besides the standard functions defined in the section 'Expression Evaluation', the following functions are available: bits2qp(bits), qp2bits(qp). Also the following constants are available: iTex pTex tex mv fCode iCount mcVar var isI isP isB avgQP qComp avgIITex avgPITex avgPPTex avgBPTex avgTex.) specified for output file #0 (/home/yiaapc5/public_html/f_data/data_userfiles/user_media/1134370236/v/0739f6898517db4933a2988ffc5bd3fa.mob.nomob.mp4) has not been used for any stream. The most likely reason is either wrong type (e.g. a video option with no video streams) or that it is a private option of some encoder which was not actually used for any stream.
Stream mapping:
  Stream #0:0 -> #0:0 (h264 (native) -> h264 (libx264))
  Stream #0:1 -> #0:1 (aac (native) -> aac (native))
Press [q] to stop, [?] for help
[libx264 @ 0x62454c0] Application has requested 32 threads. Using a thread count greater than 16 is not recommended.
[libx264 @ 0x62454c0] using SAR=136/135
[libx264 @ 0x62454c0] frame MB size (30x17) > level limit (396)
[libx264 @ 0x62454c0] VBV bitrate (10000) > level limit (768)
[libx264 @ 0x62454c0] VBV buffer (10000) > level limit (2000)
[libx264 @ 0x62454c0] MB rate (15284) > level limit (11880)
[libx264 @ 0x62454c0] using cpu capabilities: MMX2 SSE2Fast SSSE3 SSE4.2 AVX
[libx264 @ 0x62454c0] profile Constrained Baseline, level 1.3, 4:2:0, 8-bit
[libx264 @ 0x62454c0] 264 - core 161 r3040 35417dc - H.264/MPEG-4 AVC codec - Copyleft 2003-2021 - http://www.videolan.org/x264.html - options: cabac=0 ref=1 deblock=1:0:0 analyse=0x1:0 me=hex subme=1 psy=1 psy_rd=1.00:0.00 mixed_ref=0 me_range=16 chroma_me=1 trellis=0 8x8dct=0 cqm=0 deadzone=21,11 fast_pskip=1 chroma_qp_offset=0 threads=32 lookahead_threads=2 sliced_threads=0 nr=0 decimate=1 interlaced=0 bluray_compat=0 constrained_intra=0 bframes=0 weightp=0 keyint=300 keyint_min=25 scenecut=40 intra_refresh=0 rc_lookahead=30 rc=abr mbtree=1 bitrate=1000 ratetol=1.0 qcomp=0.60 qpmin=10 qpmax=51 qpstep=4 vbv_maxrate=10000 vbv_bufsize=10000 nal_hrd=none filler=0 ip_ratio=1.41 aq=1:1.00
Output #0, mp4, to '/home/yiaapc5/public_html/f_data/data_userfiles/user_media/1134370236/v/0739f6898517db4933a2988ffc5bd3fa.mob.nomob.mp4':
  Metadata:
    major_brand     : mp42
    minor_version   : 0
    compatible_brands: isommp42
    encoder         : Lavf58.65.101
    Stream #0:0(und): Video: h264 (avc1 / 0x31637661), yuv420p(tv, bt709, progressive), 480x272 [SAR 136:135 DAR 16:9], q=2-31, 1000 kb/s, 29.97 fps, 30k tbn (default)
    Metadata:
      creation_time   : 2020-12-29T04:26:42.000000Z
      handler_name    : ISO Media file produced by Google Inc. Created on: 12/28/2020.
      vendor_id       : [0][0][0][0]
      encoder         : Lavc58.119.100 libx264
    Side data:
      cpb: bitrate max/min/avg: 10000000/0/1000000 buffer size: 10000000 vbv_delay: N/A
    Stream #0:1(eng): Audio: aac (LC) (mp4a / 0x6134706D), 44100 Hz, stereo, fltp, 128 kb/s (default)
    Metadata:
      creation_time   : 2020-12-29T04:26:42.000000Z
      handler_name    : ISO Media file produced by Google Inc. Created on: 12/28/2020.
      vendor_id       : [0][0][0][0]
      encoder         : Lavc58.119.100 aac
frame=    1 fps=0.0 q=0.0 size=       0kB time=00:00:00.41 bitrate=   0.9kbits/s speed=8.82x    frame=  194 fps=0.0 q=24.0 size=     512kB time=00:00:06.96 bitrate= 602.2kbits/s speed=12.7x    frame=  408 fps=389 q=27.0 size=    1536kB time=00:00:13.95 bitrate= 901.7kbits/s speed=13.3x    frame=  625 fps=403 q=28.0 size=    2560kB time=00:00:20.92 bitrate=1002.4kbits/s speed=13.5x    frame=  838 fps=409 q=30.0 size=    3840kB time=00:00:28.21 bitrate=1115.0kbits/s speed=13.8x    frame= 1045 fps=410 q=30.0 size=    4608kB time=00:00:34.85 bitrate=1083.1kbits/s speed=13.7x    frame= 1250 fps=410 q=29.0 size=    5632kB time=00:00:41.81 bitrate=1103.3kbits/s speed=13.7x    frame= 1453 fps=409 q=28.0 size=    6400kB time=00:00:48.78 bitrate=1074.7kbits/s speed=13.7x    frame= 1646 fps=406 q=28.0 size=    7168kB time=00:00:55.28 bitrate=1062.1kbits/s speed=13.6x    frame= 1859 fps=408 q=29.0 size=    8448kB time=00:01:02.25 bitrate=1111.7kbits/s speed=13.7x    frame= 2050 fps=405 q=30.0 size=    9472kB time=00:01:08.75 bitrate=1128.6kbits/s speed=13.6x    frame= 2257 fps=406 q=29.0 size=   10240kB time=00:01:15.72 bitrate=1107.8kbits/s speed=13.6x    frame= 2459 fps=406 q=29.0 size=   11008kB time=00:01:22.22 bitrate=1096.8kbits/s speed=13.6x    frame= 2671 fps=407 q=29.0 size=   12032kB time=00:01:29.18 bitrate=1105.2kbits/s speed=13.6x    frame= 2884 fps=409 q=29.0 size=   13056kB time=00:01:36.15 bitrate=1112.3kbits/s speed=13.6x    frame= 3091 fps=409 q=29.0 size=   14080kB time=00:01:43.28 bitrate=1116.8kbits/s speed=13.7x    frame= 3301 fps=410 q=30.0 size=   15104kB time=00:01:50.15 bitrate=1123.3kbits/s speed=13.7x    frame= 3508 fps=410 q=31.0 size=   16384kB time=00:01:57.07 bitrate=1146.4kbits/s speed=13.7x    frame= 3534 fps=293 q=31.0 size=   16640kB time=00:01:57.98 bitrate=1155.4kbits/s speed=9.77x    frame= 3755 fps=298 q=32.0 size=   17664kB time=00:02:05.41 bitrate=1153.8kbits/s speed=9.97x    frame= 3967 fps=303 q=32.0 size=   18688kB time=00:02:12.37 bitrate=1156.5kbits/s speed=10.1x    frame= 4165 fps=307 q=31.0 size=   19200kB time=00:02:19.34 bitrate=1128.8kbits/s speed=10.3x    frame= 4370 fps=310 q=29.0 size=   19712kB time=00:02:25.84 bitrate=1107.2kbits/s speed=10.4x    frame= 4563 fps=313 q=29.0 size=   20736kB time=00:02:32.34 bitrate=1115.0kbits/s speed=10.4x    frame= 4756 fps=315 q=31.0 size=   22016kB time=00:02:38.84 bitrate=1135.4kbits/s speed=10.5x    frame= 4958 fps=318 q=30.0 size=   22528kB time=00:02:45.67 bitrate=1113.9kbits/s speed=10.6x    frame= 5176 fps=322 q=29.0 size=   23552kB time=00:02:52.77 bitrate=1116.7kbits/s speed=10.7x    frame= 5393 fps=325 q=29.0 size=   24320kB time=00:03:00.21 bitrate=1105.5kbits/s speed=10.9x    frame= 5610 fps=328 q=30.0 size=   25600kB time=00:03:07.50 bitrate=1118.5kbits/s speed=  11x    frame= 5830 fps=331 q=29.0 size=   26368kB time=00:03:14.60 bitrate=1110.0kbits/s speed=11.1x    frame= 6049 fps=334 q=28.0 size=   26880kB time=00:03:22.03 bitrate=1089.9kbits/s speed=11.2x    frame= 6265 fps=337 q=27.0 size=   27648kB time=00:03:29.28 bitrate=1082.2kbits/s speed=11.3x    frame= 6484 fps=340 q=26.0 size=   28416kB time=00:03:36.43 bitrate=1075.5kbits/s speed=11.3x    frame= 6696 fps=342 q=24.0 size=   28928kB time=00:03:43.58 bitrate=1059.9kbits/s speed=11.4x    frame= 6889 fps=343 q=25.0 size=   29952kB time=00:03:49.90 bitrate=1067.3kbits/s speed=11.4x    frame= 7081 fps=344 q=26.0 size=   31232kB time=00:03:56.40 bitrate=1082.3kbits/s speed=11.5x    frame= 7270 fps=345 q=27.0 size=   32256kB time=00:04:02.90 bitrate=1087.8kbits/s speed=11.5x    frame= 7463 fps=345 q=28.0 size=   33536kB time=00:04:08.94 bitrate=1103.6kbits/s speed=11.5x    frame= 7656 fps=346 q=28.0 size=   34560kB time=00:04:15.46 bitrate=1108.2kbits/s speed=11.6x    frame= 7845 fps=347 q=28.0 size=   35328kB time=00:04:21.94 bitrate=1104.8kbits/s speed=11.6x    frame= 8037 fps=348 q=27.0 size=   36096kB time=00:04:28.44 bitrate=1101.5kbits/s speed=11.6x    frame= 8227 fps=349 q=27.0 size=   36864kB time=00:04:34.71 bitrate=1099.3kbits/s speed=11.6x    frame= 8419 fps=349 q=27.0 size=   37632kB time=00:04:40.98 bitrate=1097.1kbits/s speed=11.7x    frame= 8612 fps=350 q=27.0 size=   38656kB time=00:04:47.48 bitrate=1101.5kbits/s speed=11.7x    frame= 8798 fps=350 q=27.0 size=   39680kB time=00:04:53.84 bitrate=1106.2kbits/s speed=11.7x    frame= 8994 fps=351 q=27.0 size=   40448kB time=00:05:00.14 bitrate=1104.0kbits/s speed=11.7x    frame= 9211 fps=353 q=27.0 size=   41472kB time=00:05:07.45 bitrate=1105.0kbits/s speed=11.8x    frame= 9426 fps=354 q=27.0 size=   42240kB time=00:05:14.88 bitrate=1098.9kbits/s speed=11.8x    frame= 9646 fps=356 q=26.0 size=   43008kB time=00:05:21.85 bitrate=1094.7kbits/s speed=11.9x    frame= 9857 fps=357 q=26.0 size=   43776kB time=00:05:29.28 bitrate=1089.1kbits/s speed=11.9x    frame=10078 fps=359 q=26.0 size=   44800kB time=00:05:36.24 bitrate=1091.5kbits/s speed=  12x    frame=10297 fps=360 q=26.0 size=   46080kB time=00:05:43.67 bitrate=1098.4kbits/s speed=  12x    frame=10514 fps=361 q=26.0 size=   47104kB time=00:05:51.10 bitrate=1099.0kbits/s speed=12.1x    frame=10732 fps=362 q=26.0 size=   48128kB time=00:05:58.44 bitrate=1099.9kbits/s speed=12.1x    frame=10954 fps=364 q=26.0 size=   49152kB time=00:06:05.50 bitrate=1101.6kbits/s speed=12.1x    frame=11173 fps=365 q=26.0 size=   49920kB time=00:06:12.93 bitrate=1096.6kbits/s speed=12.2x    frame=11387 fps=366 q=26.0 size=   50944kB time=00:06:20.13 bitrate=1097.9kbits/s speed=12.2x    frame=11605 fps=367 q=26.0 size=   52224kB time=00:06:27.33 bitrate=1104.5kbits/s speed=12.3x    frame=11825 fps=368 q=26.0 size=   53248kB time=00:06:34.76 bitrate=1105.0kbits/s speed=12.3x    frame=12044 fps=369 q=27.0 size=   54528kB time=00:06:42.19 bitrate=1110.6kbits/s speed=12.3x    frame=12263 fps=370 q=27.0 size=   55296kB time=00:06:49.36 bitrate=1106.5kbits/s speed=12.4x    frame=12470 fps=371 q=27.0 size=   56320kB time=00:06:56.12 bitrate=1108.7kbits/s speed=12.4x    frame=12675 fps=372 q=27.0 size=   57344kB time=00:07:03.09 bitrate=1110.3kbits/s speed=12.4x    frame=12876 fps=372 q=27.0 size=   58368kB time=00:07:09.73 bitrate=1112.7kbits/s speed=12.4x    frame=13097 fps=373 q=27.0 size=   59136kB time=00:07:17.02 bitrate=1108.5kbits/s speed=12.4x    frame=13315 fps=374 q=27.0 size=   60160kB time=00:07:24.45 bitrate=1108.8kbits/s speed=12.5x    frame=13534 fps=375 q=27.0 size=   61440kB time=00:07:31.88 bitrate=1113.8kbits/s speed=12.5x    frame=13754 fps=376 q=27.0 size=   62208kB time=00:07:39.31 bitrate=1109.5kbits/s speed=12.5x    frame=13975 fps=376 q=26.0 size=   62976kB time=00:07:46.27 bitrate=1106.4kbits/s speed=12.6x    frame=14194 fps=377 q=26.0 size=   64000kB time=00:07:53.71 bitrate=1106.8kbits/s speed=12.6x    frame=14411 fps=378 q=26.0 size=   65024kB time=00:08:01.14 bitrate=1107.1kbits/s speed=12.6x    frame=14631 fps=379 q=26.0 size=   66048kB time=00:08:08.10 bitrate=1108.5kbits/s speed=12.6x    frame=14847 fps=379 q=26.0 size=   67072kB time=00:08:15.53 bitrate=1108.8kbits/s speed=12.7x    frame=15062 fps=380 q=26.0 size=   68096kB time=00:08:22.61 bitrate=1109.9kbits/s speed=12.7x    frame=15279 fps=381 q=26.0 size=   69120kB time=00:08:29.93 bitrate=1110.4kbits/s speed=12.7x    frame=15497 fps=381 q=26.0 size=   70144kB time=00:08:37.36 bitrate=1110.7kbits/s speed=12.7x    frame=15714 fps=382 q=26.0 size=   70656kB time=00:08:44.72 bitrate=1103.1kbits/s speed=12.8x    frame=15936 fps=383 q=25.0 size=   71424kB time=00:08:51.76 bitrate=1100.3kbits/s speed=12.8x    frame=16154 fps=383 q=25.0 size=   72448kB time=00:08:59.19 bitrate=1100.7kbits/s speed=12.8x    frame=16373 fps=384 q=25.0 size=   73472kB time=00:09:06.62 bitrate=1101.1kbits/s speed=12.8x    frame=16593 fps=385 q=25.0 size=   74496kB time=00:09:13.84 bitrate=1101.9kbits/s speed=12.8x    frame=16809 fps=385 q=25.0 size=   75776kB time=00:09:21.01 bitrate=1106.5kbits/s speed=12.9x    frame=17023 fps=386 q=26.0 size=   76800kB time=00:09:27.98 bitrate=1107.7kbits/s speed=12.9x    frame=17233 fps=386 q=25.0 size=   77568kB time=00:09:35.41 bitrate=1104.3kbits/s speed=12.9x    frame=17446 fps=387 q=25.0 size=   78336kB time=00:09:42.37 bitrate=1101.9kbits/s speed=12.9x    frame=17656 fps=387 q=25.0 size=   79360kB time=00:09:49.34 bitrate=1103.1kbits/s speed=12.9x    frame=17869 fps=387 q=25.0 size=   80640kB time=00:09:56.31 bitrate=1107.8kbits/s speed=12.9x    frame=18082 fps=388 q=25.0 size=   81408kB time=00:10:03.30 bitrate=1105.4kbits/s speed=12.9x    frame=18294 fps=388 q=25.0 size=   82432kB time=00:10:10.70 bitrate=1105.7kbits/s speed=  13x    frame=18513 fps=389 q=25.0 size=   83200kB time=00:10:17.72 bitrate=1103.4kbits/s speed=  13x    frame=18732 fps=389 q=24.0 size=   84224kB time=00:10:25.10 bitrate=1103.8kbits/s speed=  13x    frame=18947 fps=390 q=25.0 size=   85248kB time=00:10:32.53 bitrate=1104.1kbits/s speed=  13x    frame=19153 fps=390 q=25.0 size=   86272kB time=00:10:39.03 bitrate=1105.9kbits/s speed=  13x    frame=19340 fps=390 q=24.0 size=   86784kB time=00:10:45.53 bitrate=1101.3kbits/s speed=  13x    frame=19549 fps=390 q=24.0 size=   87808kB time=00:10:52.50 bitrate=1102.4kbits/s speed=  13x    frame=19768 fps=390 q=24.0 size=   88832kB time=00:10:59.93 bitrate=1102.7kbits/s speed=  13x    frame=19988 fps=391 q=24.0 size=   89856kB time=00:11:07.08 bitrate=1103.5kbits/s speed=  13x    frame=20211 fps=391 q=24.0 size=   90880kB time=00:11:14.33 bitrate=1104.0kbits/s speed=13.1x    frame=20429 fps=392 q=24.0 size=   91904kB time=00:11:21.76 bitrate=1104.3kbits/s speed=13.1x    frame=20643 fps=392 q=24.0 size=   92928kB time=00:11:29.07 bitrate=1104.8kbits/s speed=13.1x    frame=20864 fps=393 q=24.0 size=   93696kB time=00:11:36.20 bitrate=1102.5kbits/s speed=13.1x    frame=21073 fps=393 q=24.0 size=   94464kB time=00:11:43.12 bitrate=1100.6kbits/s speed=13.1x    frame=21287 fps=393 q=24.0 size=   95744kB time=00:11:50.55 bitrate=1103.8kbits/s speed=13.1x    frame=21503 fps=393 q=24.0 size=   96768kB time=00:11:57.51 bitrate=1104.8kbits/s speed=13.1x    frame=21715 fps=394 q=24.0 size=   97792kB time=00:12:04.90 bitrate=1105.1kbits/s speed=13.1x    frame=21934 fps=394 q=23.0 size=   98304kB time=00:12:11.91 bitrate=1100.3kbits/s speed=13.2x    frame=22148 fps=394 q=23.0 size=   99328kB time=00:12:19.34 bitrate=1100.6kbits/s speed=13.2x    frame=22367 fps=395 q=23.0 size=  100352kB time=00:12:26.56 bitrate=1101.2kbits/s speed=13.2x    frame=22590 fps=395 q=23.0 size=  101120kB time=00:12:33.74 bitrate=1099.0kbits/s speed=13.2x    frame=22809 fps=396 q=24.0 size=  102656kB time=00:12:41.17 bitrate=1104.8kbits/s speed=13.2x    frame=23024 fps=396 q=23.0 size=  103424kB time=00:12:48.60 bitrate=1102.3kbits/s speed=13.2x    frame=23230 fps=396 q=24.0 size=  104448kB time=00:12:55.10 bitrate=1103.9kbits/s speed=13.2x    frame=23430 fps=396 q=25.0 size=  105984kB time=00:13:02.07 bitrate=1110.2kbits/s speed=13.2x    frame=23649 fps=396 q=25.0 size=  107520kB time=00:13:09.06 bitrate=1116.3kbits/s speed=13.2x    frame=23867 fps=397 q=25.0 size=  108032kB time=00:13:16.46 bitrate=1111.2kbits/s speed=13.2x    frame=24086 fps=397 q=25.0 size=  108800kB time=00:13:23.89 bitrate=1108.7kbits/s speed=13.3x    frame=24306 fps=397 q=25.0 size=  110080kB time=00:13:31.32 bitrate=1111.5kbits/s speed=13.3x    frame=24525 fps=398 q=24.0 size=  110848kB time=00:13:38.48 bitrate=1109.5kbits/s speed=13.3x    frame=24747 fps=398 q=24.0 size=  111872kB time=00:13:45.72 bitrate=1109.9kbits/s speed=13.3x    frame=24965 fps=398 q=25.0 size=  112896kB time=00:13:53.15 bitrate=1110.1kbits/s speed=13.3x    frame=25172 fps=398 q=25.0 size=  113920kB time=00:14:00.12 bitrate=1110.8kbits/s speed=13.3x    frame=25393 fps=399 q=25.0 size=  114944kB time=00:14:07.55 bitrate=1111.0kbits/s speed=13.3x    frame=25611 fps=399 q=25.0 size=  115968kB time=00:14:14.74 bitrate=1111.4kbits/s speed=13.3x    frame=25832 fps=399 q=25.0 size=  117248kB time=00:14:21.94 bitrate=1114.3kbits/s speed=13.3x    frame=26049 fps=400 q=25.0 size=  118272kB time=00:14:29.37 bitrate=1114.5kbits/s speed=13.3x    frame=26268 fps=400 q=25.0 size=  119296kB time=00:14:36.80 bitrate=1114.6kbits/s speed=13.4x    frame=26487 fps=400 q=25.0 size=  120320kB time=00:14:44.14 bitrate=1114.8kbits/s speed=13.4x    frame=26708 fps=401 q=25.0 size=  121088kB time=00:14:51.20 bitrate=1113.0kbits/s speed=13.4x    frame=26928 fps=401 q=22.0 size=  122624kB time=00:14:58.63 bitrate=1117.8kbits/s speed=13.4x    frame=27148 fps=401 q=26.0 size=  124160kB time=00:15:06.06 bitrate=1122.6kbits/s speed=13.4x    frame=27369 fps=401 q=26.0 size=  124928kB time=00:15:13.49 bitrate=1120.3kbits/s speed=13.4x    frame=27587 fps=402 q=26.0 size=  125952kB time=00:15:20.83 bitrate=1120.5kbits/s speed=13.4x    frame=27811 fps=402 q=26.0 size=  126976kB time=00:15:27.96 bitrate=1120.9kbits/s speed=13.4x    frame=28032 fps=402 q=26.0 size=  127744kB time=00:15:35.32 bitrate=1118.8kbits/s speed=13.4x    frame=28248 fps=403 q=25.0 size=  128768kB time=00:15:42.75 bitrate=1118.9kbits/s speed=13.4x    frame=28423 fps=402 q=25.0 size=  129536kB time=00:15:48.74 bitrate=1118.5kbits/s speed=13.4x    frame=28645 fps=402 q=25.0 size=  130304kB time=00:15:55.96 bitrate=1116.6kbits/s speed=13.4x    frame=28863 fps=403 q=25.0 size=  131072kB time=00:16:03.18 bitrate=1114.8kbits/s speed=13.4x    frame=29081 fps=403 q=25.0 size=  132096kB time=00:16:10.61 bitrate=1114.9kbits/s speed=13.4x    frame=29300 fps=403 q=25.0 size=  133120kB time=00:16:18.02 bitrate=1115.0kbits/s speed=13.5x    frame=29516 fps=403 q=26.0 size=  134656kB time=00:16:25.01 bitrate=1119.9kbits/s speed=13.5x    frame=29731 fps=404 q=27.0 size=  136448kB time=00:16:32.04 bitrate=1126.7kbits/s speed=13.5x    frame=29938 fps=404 q=27.0 size=  137472kB time=00:16:38.94 bitrate=1127.4kbits/s speed=13.5x    frame=30151 fps=404 q=26.0 size=  137984kB time=00:16:46.37 bitrate=1123.2kbits/s speed=13.5x    frame=30358 fps=404 q=26.0 size=  139008kB time=00:16:53.27 bitrate=1123.8kbits/s speed=13.5x    frame=30550 fps=404 q=26.0 size=  140032kB time=00:16:59.37 bitrate=1125.3kbits/s speed=13.5x    frame=30755 fps=404 q=23.0 size=  140800kB time=00:17:06.34 bitrate=1123.8kbits/s speed=13.5x    frame=30969 fps=404 q=26.0 size=  141824kB time=00:17:13.31 bitrate=1124.4kbits/s speed=13.5x    frame=31178 fps=404 q=26.0 size=  142848kB time=00:17:20.53 bitrate=1124.6kbits/s speed=13.5x    frame=31388 fps=404 q=27.0 size=  144128kB time=00:17:27.68 bitrate=1127.0kbits/s speed=13.5x    frame=31590 fps=404 q=27.0 size=  144896kB time=00:17:34.20 bitrate=1126.0kbits/s speed=13.5x    frame=31791 fps=404 q=26.0 size=  145920kB time=00:17:40.82 bitrate=1126.8kbits/s speed=13.5x    frame=32012 fps=404 q=26.0 size=  146432kB time=00:17:48.14 bitrate=1123.0kbits/s speed=13.5x    frame=32229 fps=404 q=26.0 size=  147456kB time=00:17:55.57 bitrate=1123.1kbits/s speed=13.5x    frame=32449 fps=405 q=26.0 size=  148224kB time=00:18:03.00 bitrate=1121.2kbits/s speed=13.5x    frame=32669 fps=405 q=25.0 size=  148992kB time=00:18:10.43 bitrate=1119.3kbits/s speed=13.5x    frame=32890 fps=405 q=25.0 size=  149760kB time=00:18:17.39 bitrate=1117.9kbits/s speed=13.5x    frame=33109 fps=405 q=25.0 size=  150784kB time=00:18:24.82 bitrate=1118.0kbits/s speed=13.5x    frame=33329 fps=405 q=25.0 size=  151808kB time=00:18:32.25 bitrate=1118.1kbits/s speed=13.5x    frame=33548 fps=406 q=25.0 size=  152832kB time=00:18:39.68 bitrate=1118.2kbits/s speed=13.5x    frame=33767 fps=406 q=25.0 size=  153856kB time=00:18:47.07 bitrate=1118.3kbits/s speed=13.5x    frame=33991 fps=406 q=25.0 size=  155136kB time=00:18:54.10 bitrate=1120.6kbits/s speed=13.6x    frame=34184 fps=406 q=26.0 size=  156160kB time=00:19:01.02 bitrate=1121.1kbits/s speed=13.6x    frame=34402 fps=406 q=26.0 size=  157440kB time=00:19:08.01 bitrate=1123.5kbits/s speed=13.6x    frame=34622 fps=406 q=26.0 size=  158464kB time=00:19:15.44 bitrate=1123.5kbits/s speed=13.6x    frame=34825 fps=406 q=26.0 size=  159488kB time=00:19:22.11 bitrate=1124.3kbits/s speed=13.6x    frame=35044 fps=407 q=26.0 size=  160512kB time=00:19:29.38 bitrate=1124.5kbits/s speed=13.6x    frame=35263 fps=407 q=26.0 size=  161536kB time=00:19:36.81 bitrate=1124.5kbits/s speed=13.6x    frame=35480 fps=407 q=26.0 size=  162304kB time=00:19:43.91 bitrate=1123.0kbits/s speed=13.6x    frame=35700 fps=407 q=26.0 size=  163072kB time=00:19:51.20 bitrate=1121.5kbits/s speed=13.6x    frame=35916 fps=407 q=26.0 size=  164096kB time=00:19:58.63 bitrate=1121.5kbits/s speed=13.6x    frame=36108 fps=407 q=26.0 size=  165120kB time=00:20:05.13 bitrate=1122.4kbits/s speed=13.6x    frame=36303 fps=407 q=26.0 size=  166144kB time=00:20:11.64 bitrate=1123.3kbits/s speed=13.6x    frame=36500 fps=407 q=26.0 size=  166912kB time=00:20:18.14 bitrate=1122.5kbits/s speed=13.6x    frame=36717 fps=407 q=25.0 size=  167680kB time=00:20:25.45 bitrate=1120.9kbits/s speed=13.6x    frame=36937 fps=407 q=25.0 size=  168192kB time=00:20:32.53 bitrate=1117.9kbits/s speed=13.6x    frame=37156 fps=407 q=25.0 size=  169472kB time=00:20:39.96 bitrate=1119.6kbits/s speed=13.6x    frame=37374 fps=408 q=25.0 size=  170496kB time=00:20:47.39 bitrate=1119.7kbits/s speed=13.6x    frame=37595 fps=408 q=25.0 size=  171264kB time=00:20:54.38 bitrate=1118.5kbits/s speed=13.6x    frame=37817 fps=408 q=25.0 size=  172288kB time=00:21:01.79 bitrate=1118.6kbits/s speed=13.6x    frame=38034 fps=408 q=25.0 size=  173568kB time=00:21:09.22 bitrate=1120.3kbits/s speed=13.6x    frame=38252 fps=408 q=26.0 size=  174848kB time=00:21:16.65 bitrate=1122.0kbits/s speed=13.6x    frame=38472 fps=408 q=26.0 size=  176128kB time=00:21:23.66 bitrate=1124.0kbits/s speed=13.6x    frame=38691 fps=409 q=26.0 size=  177408kB time=00:21:31.05 bitrate=1125.7kbits/s speed=13.6x    frame=38910 fps=409 q=26.0 size=  178432kB time=00:21:38.48 bitrate=1125.7kbits/s speed=13.6x    frame=39129 fps=409 q=26.0 size=  179712kB time=00:21:45.91 bitrate=1127.3kbits/s speed=13.6x    frame=39348 fps=409 q=26.0 size=  180736kB time=00:21:52.87 bitrate=1127.7kbits/s speed=13.6x    frame=39556 fps=409 q=26.0 size=  181248kB time=00:21:59.84 bitrate=1125.0kbits/s speed=13.6x    frame=39759 fps=409 q=26.0 size=  182016kB time=00:22:06.81 bitrate=1123.8kbits/s speed=13.6x    frame=39963 fps=409 q=25.0 size=  182784kB time=00:22:13.77 bitrate=1122.7kbits/s speed=13.6x    frame=40168 fps=409 q=25.0 size=  183552kB time=00:22:20.34 bitrate=1121.8kbits/s speed=13.6x    frame=40374 fps=409 q=26.0 size=  184576kB time=00:22:27.24 bitrate=1122.3kbits/s speed=13.6x    frame=40587 fps=409 q=26.0 size=  185856kB time=00:22:34.21 bitrate=1124.3kbits/s speed=13.6x    frame=40802 fps=409 q=26.0 size=  186880kB time=00:22:41.64 bitrate=1124.3kbits/s speed=13.7x    frame=41019 fps=409 q=26.0 size=  187904kB time=00:22:48.70 bitrate=1124.7kbits/s speed=13.7x    frame=41235 fps=409 q=26.0 size=  188672kB time=00:22:56.03 bitrate=1123.2kbits/s speed=13.7x    frame=41450 fps=409 q=26.0 size=  190208kB time=00:23:03.44 bitrate=1126.3kbits/s speed=13.7x    frame=41669 fps=410 q=26.0 size=  190976kB time=00:23:10.43 bitrate=1125.2kbits/s speed=13.7x    frame=41877 fps=410 q=26.0 size=  192512kB time=00:23:17.40 bitrate=1128.6kbits/s speed=13.7x    frame=42079 fps=410 q=27.0 size=  193536kB time=00:23:24.36 bitrate=1128.9kbits/s speed=13.7x    frame=42293 fps=410 q=27.0 size=  195072kB time=00:23:31.33 bitrate=1132.3kbits/s speed=13.7x    frame=42510 fps=410 q=28.0 size=  196864kB time=00:23:38.76 bitrate=1136.7kbits/s speed=13.7x    frame=42718 fps=410 q=28.0 size=  198400kB time=00:23:45.72 bitrate=1140.0kbits/s speed=13.7x    frame=42925 fps=410 q=29.0 size=  199680kB time=00:23:52.60 bitrate=1141.8kbits/s speed=13.7x    frame=43132 fps=410 q=29.0 size=  200960kB time=00:23:59.19 bitrate=1143.9kbits/s speed=13.7x    frame=43338 fps=410 q=29.0 size=  201728kB time=00:24:06.16 bitrate=1142.7kbits/s speed=13.7x    frame=43556 fps=410 q=29.0 size=  202752kB time=00:24:13.59 bitrate=1142.6kbits/s speed=13.7x    frame=43773 fps=410 q=29.0 size=  204032kB time=00:24:20.81 bitrate=1144.2kbits/s speed=13.7x    frame=43983 fps=410 q=30.0 size=  205568kB time=00:24:27.89 bitrate=1147.2kbits/s speed=13.7x    frame=44191 fps=410 q=29.0 size=  206336kB time=00:24:34.49 bitrate=1146.4kbits/s speed=13.7x    frame=44400 fps=410 q=29.0 size=  207616kB time=00:24:41.82 bitrate=1147.8kbits/s speed=13.7x    frame=44610 fps=410 q=29.0 size=  208384kB time=00:24:48.77 bitrate=1146.6kbits/s speed=13.7x    frame=44826 fps=410 q=30.0 size=  209664kB time=00:24:55.85 bitrate=1148.2kbits/s speed=13.7x    frame=45041 fps=410 q=30.0 size=  210688kB time=00:25:03.25 bitrate=1148.1kbits/s speed=13.7x    frame=45259 fps=411 q=30.0 size=  211712kB time=00:25:10.24 bitrate=1148.4kbits/s speed=13.7x    frame=45465 fps=411 q=30.0 size=  212736kB time=00:25:17.21 bitrate=1148.6kbits/s speed=13.7x    frame=45682 fps=411 q=30.0 size=  213760kB time=00:25:24.64 bitrate=1148.5kbits/s speed=13.7x    frame=45901 fps=411 q=30.0 size=  214784kB time=00:25:31.61 bitrate=1148.8kbits/s speed=13.7x    frame=46118 fps=411 q=30.0 size=  215552kB time=00:25:39.04 bitrate=1147.3kbits/s speed=13.7x    frame=46336 fps=411 q=29.0 size=  216064kB time=00:25:46.47 bitrate=1144.5kbits/s speed=13.7x    frame=46558 fps=411 q=29.0 size=  216576kB time=00:25:53.43 bitrate=1142.1kbits/s speed=13.7x    frame=46774 fps=411 q=29.0 size=  217344kB time=00:26:00.86 bitrate=1140.7kbits/s speed=13.7x    frame=46993 fps=411 q=28.0 size=  217856kB time=00:26:08.29 bitrate=1138.0kbits/s speed=13.7x    frame=47213 fps=411 q=28.0 size=  218624kB time=00:26:15.26 bitrate=1136.9kbits/s speed=13.7x    frame=47429 fps=412 q=28.0 size=  219136kB time=00:26:22.69 bitrate=1134.2kbits/s speed=13.7x    frame=47644 fps=412 q=28.0 size=  219904kB time=00:26:29.66 bitrate=1133.2kbits/s speed=13.7x    frame=47861 fps=412 q=28.0 size=  220928kB time=00:26:37.09 bitrate=1133.2kbits/s speed=13.7x    frame=48075 fps=412 q=28.0 size=  221952kB time=00:26:44.35 bitrate=1133.3kbits/s speed=13.7x    frame=48297 fps=412 q=27.0 size=  222720kB time=00:26:51.48 bitrate=1132.2kbits/s speed=13.7x    frame=48512 fps=412 q=28.0 size=  224000kB time=00:26:58.91 bitrate=1133.5kbits/s speed=13.7x    frame=48730 fps=412 q=28.0 size=  224768kB time=00:27:06.07 bitrate=1132.4kbits/s speed=13.8x    frame=48951 fps=412 q=27.0 size=  225536kB time=00:27:13.31 bitrate=1131.2kbits/s speed=13.8x    frame=49166 fps=412 q=27.0 size=  226304kB time=00:27:20.74 bitrate=1129.9kbits/s speed=13.8x    frame=49368 fps=412 q=28.0 size=  227584kB time=00:27:27.64 bitrate=1131.5kbits/s speed=13.8x    frame=49590 fps=412 q=28.0 size=  228608kB time=00:27:34.67 bitrate=1131.8kbits/s speed=13.8x    frame=49805 fps=412 q=28.0 size=  230144kB time=00:27:42.10 bitrate=1134.3kbits/s speed=13.8x    frame=50022 fps=413 q=28.0 size=  230912kB time=00:27:49.07 bitrate=1133.3kbits/s speed=13.8x    frame=50237 fps=413 q=27.0 size=  231424kB time=00:27:56.50 bitrate=1130.8kbits/s speed=13.8x    frame=50453 fps=413 q=27.0 size=  232192kB time=00:28:03.46 bitrate=1129.9kbits/s speed=13.8x    frame=50668 fps=413 q=27.0 size=  232960kB time=00:28:10.90 bitrate=1128.6kbits/s speed=13.8x    frame=50885 fps=413 q=27.0 size=  233984kB time=00:28:17.98 bitrate=1128.9kbits/s speed=13.8x    frame=51105 fps=413 q=27.0 size=  235008kB time=00:28:25.29 bitrate=1128.9kbits/s speed=13.8x    frame=51324 fps=413 q=27.0 size=  236032kB time=00:28:32.72 bitrate=1128.9kbits/s speed=13.8x    frame=51540 fps=413 q=27.0 size=  237056kB time=00:28:39.90 bitrate=1129.1kbits/s speed=13.8x    frame=51756 fps=413 q=27.0 size=  237824kB time=00:28:47.12 bitrate=1128.0kbits/s speed=13.8x    frame=51972 fps=413 q=27.0 size=  238592kB time=00:28:54.55 bitrate=1126.8kbits/s speed=13.8x    frame=52195 fps=413 q=27.0 size=  239616kB time=00:29:01.51 bitrate=1127.1kbits/s speed=13.8x    frame=52411 fps=413 q=23.0 size=  240128kB time=00:29:08.95 bitrate=1124.7kbits/s speed=13.8x    frame=52628 fps=414 q=26.0 size=  241152kB time=00:29:16.38 bitrate=1124.8kbits/s speed=13.8x    frame=52849 fps=414 q=26.0 size=  242176kB time=00:29:23.34 bitrate=1125.1kbits/s speed=13.8x    frame=53067 fps=414 q=26.0 size=  243200kB time=00:29:30.77 bitrate=1125.1kbits/s speed=13.8x    frame=53285 fps=414 q=27.0 size=  244736kB time=00:29:38.20 bitrate=1127.5kbits/s speed=13.8x    frame=53502 fps=414 q=27.0 size=  246016kB time=00:29:45.47 bitrate=1128.8kbits/s speed=13.8x    frame=53722 fps=414 q=27.0 size=  246528kB time=00:29:52.60 bitrate=1126.6kbits/s speed=13.8x    frame=53937 fps=414 q=26.0 size=  247040kB time=00:30:00.03 bitrate=1124.3kbits/s speed=13.8x    frame=54157 fps=414 q=26.0 size=  247808kB time=00:30:07.04 bitrate=1123.4kbits/s speed=13.8x    frame=54371 fps=414 q=26.0 size=  248320kB time=00:30:14.43 bitrate=1121.1kbits/s speed=13.8x    frame=54580 fps=414 q=25.0 size=  249088kB time=00:30:21.39 bitrate=1120.3kbits/s speed=13.8x    frame=54798 fps=414 q=26.0 size=  250880kB time=00:30:28.71 bitrate=1123.9kbits/s speed=13.8x    frame=54839 fps=414 q=-1.0 Lsize=  252959kB time=00:30:29.77 bitrate=1132.5kbits/s speed=13.8x    
video:222768kB audio:28676kB subtitle:0kB other streams:0kB global headers:0kB muxing overhead: 0.602573%
[libx264 @ 0x62454c0] frame I:391   Avg QP:19.00  size: 25125
[libx264 @ 0x62454c0] frame P:54448 Avg QP:22.47  size:  4009
[libx264 @ 0x62454c0] mb I  I16..4:  8.2%  0.0% 91.8%
[libx264 @ 0x62454c0] mb P  I16..4:  2.3%  0.0%  0.0%  P16..4: 76.0%  0.0%  0.0%  0.0%  0.0%    skip:21.7%
[libx264 @ 0x62454c0] final ratefactor: 20.48
[libx264 @ 0x62454c0] coded y,uvDC,uvAC intra: 54.7% 63.6% 34.1% inter: 35.7% 21.6% 3.1%
[libx264 @ 0x62454c0] i16 v,h,dc,p: 50% 20% 12% 18%
[libx264 @ 0x62454c0] i4 v,h,dc,ddl,ddr,vr,hd,vl,hu: 25% 22% 10%  7%  6%  6%  8%  6%  9%
[libx264 @ 0x62454c0] i8c dc,h,v,p: 34% 20% 35% 11%
[libx264 @ 0x62454c0] kb/s:997.33
[aac @ 0x63a9e40] Qavg: 220.738
